<?xml version="1.0" encoding="utf-8"?>
<!-- Generator: Adobe Illustrator 16.0.0, SVG Export Plug-In . SVG Version: 6.00 Build 0)  -->
<!DOCTYPE svg PUBLIC "-//W3C//DTD SVG 1.1//EN" "http://www.w3.org/Graphics/SVG/1.1/DTD/svg11.dtd">
<svg version="1.1" id="Layer_1" xmlns="http://www.w3.org/2000/svg" xmlns:xlink="http://www.w3.org/1999/xlink" x="0px" y="0px"
	 width="240px" height="240px" viewBox="0 0 240 240" style="enable-background:new 0 0 240 240;" xml:space="preserve">
<style type="text/css">
<![CDATA[
	.st0{fill-rule:evenodd;clip-rule:evenodd;fill:#DD8746;}
	.st1{fill-rule:evenodd;clip-rule:evenodd;fill:#E4E7E8;}
	.st2{fill-rule:evenodd;clip-rule:evenodd;fill:#E7EAED;}
	.st3{fill-rule:evenodd;clip-rule:evenodd;fill:#E9820A;}
	.st4{fill-rule:evenodd;clip-rule:evenodd;fill:#B5F37B;}
	.st5{fill-rule:evenodd;clip-rule:evenodd;fill:#EA8209;}
	.st6{fill-rule:evenodd;clip-rule:evenodd;fill:#88D94A;}
	.st7{fill-rule:evenodd;clip-rule:evenodd;fill:#519421;}
	.st8{fill-rule:evenodd;clip-rule:evenodd;fill:#539421;}
	.st9{fill-rule:evenodd;clip-rule:evenodd;fill:#549422;}
	.st10{fill-rule:evenodd;clip-rule:evenodd;fill:#BAF880;}
	.st11{fill-rule:evenodd;clip-rule:evenodd;fill:#BBF981;}
	.st12{fill-rule:evenodd;clip-rule:evenodd;fill:#BDFC83;}
	.st13{fill-rule:evenodd;clip-rule:evenodd;fill:#BDFD83;}
	.st14{fill-rule:evenodd;clip-rule:evenodd;fill:#283035;}
	.st15{fill-rule:evenodd;clip-rule:evenodd;fill:#FBAB71;}
	.st16{fill-rule:evenodd;clip-rule:evenodd;fill:#FEB755;}
	.st17{fill-rule:evenodd;clip-rule:evenodd;fill:#FEB855;}
	.st18{fill-rule:evenodd;clip-rule:evenodd;fill:#FED8BD;}
	.st19{fill-rule:evenodd;clip-rule:evenodd;fill:#FEDBAD;}
	.st20{fill-rule:evenodd;clip-rule:evenodd;fill:#FEFEFE;}
	.st21{fill-rule:evenodd;clip-rule:evenodd;fill:#66B32C;}
	.st22{fill-rule:evenodd;clip-rule:evenodd;fill:#67B32C;}
	.st23{fill-rule:evenodd;clip-rule:evenodd;fill:#67B42D;}
	.st24{fill-rule:evenodd;clip-rule:evenodd;fill:#326111;}
	.st25{fill-rule:evenodd;clip-rule:evenodd;fill:#336211;}
]]>
</style>
<g>
	<path class="st20" d="M1,1c79,0,158,0,237-0.1c3.4,0,4.1,0.7,4.1,4.1c-0.1,77.7-0.1,155.3,0,233c0,3.4-0.7,4.1-4.1,4.1
		c-77.7-0.1-155.3-0.1-233,0c-3.4,0-4.1-0.7-4.1-4.1C1,159,1,80,1,1z"/>
	<path class="st6" d="M204,18.1c10.7,3.4,19.4,9.7,25.8,18.9c-1.3,1-2.5,0.2-3.7-0.2c-18.9-7.1-42.2,2.1-51,20.2
		c-5.7,11.7-2.7,31.4,6.3,40.9c10.5,11,28.9,11.2,41.2,0.3c6.8-6,6.9-6,9,2.9c0.7,2.9,1.7,5.7,2.8,8.5c1.5,4,0.7,7.7-2.4,10.5
		c-22.9,20.7-49.4,33.4-80.7,35.3c-36.8,2.3-71.6-6.3-105.5-19.6c-1.4-0.5-2.7-1.2-4.2-1.5c-6.1-1.2-9.2-5.4-11.4-10.7
		c-3.4-1.5-6,0.5-5.7,4.6c0.2,3.6,2.5,6.4,4.2,9.5c0.2,0.5,0.4,0.9,0.5,1.4c1.1,9.2,3.5,18.1,6.5,26.9c0.6,1.7,1.7,3.3,0.5,5.2
		c-2.9,0.4-4.2-1.8-5.5-3.5c-8-10.1-11.8-21.9-12.8-34.6c-0.4-5.6-0.1-11.3-0.1-17c0-0.7,0.1-1.3,0.1-2c1.4-12.5,8.2-16.4,19.7-11.2
		c4.9,2.2,9.4,5,14.5,6.7c20.3,6.8,38.3,2.8,53.9-11.8c2.1-2,3.7-4.3,4.8-6.9c5.8-9.4,6.8-19.4,4.9-30.1c-1.4-8.3-4.9-15-11.8-19.9
		c-6.2-4.3-13.4-4.9-20.5-5.3c-9.9-0.6-19.6,0.8-28.9,4.2c-0.6,0.2-1.3,0.5-1.9,0.6c-1.1,0.2-2.5,0.7-3.3-0.3c-1-1.3,0.1-2.5,1-3.5
		c5.9-6.6,13.6-10.1,21.8-12.6c10.4-3.2,21-4.4,31.9-3.8c6.2,1.8,12.3,3.5,18.5,5.3c6.4,1.9,12.8,3.1,19.5,2.8
		c1.6,2.4,4.3,1.5,6.4,1.9c8.8,1.4,16.9,0.8,24.7-4.9C182.1,18.6,192.9,17.3,204,18.1z"/>
	<path class="st18" d="M237.9,126c-1.3,8.6-4.9,16.5-9.3,23.8c-5.2,8.6-9.7,17.7-16.6,25.2c-8.2,8.5-17.2,16.1-27.2,22.5
		c-15.8,10.1-32.7,17.3-51.6,18.6c-17.8,1.2-34.2-3.7-49.7-12.5c-11.1-6.3-20.9-14.4-30.1-23c-8.6-8-11.7-19.2-15.3-29.9
		c-0.7-2-1.2-4.2-1.5-6.3c-0.5-3.6,0.9-4.6,4.3-3c2.6,1.2,5,2.7,7.4,4.1c23.1,13.1,47.7,21.2,74.1,24.2c36.7,4.2,69-6.2,97.7-29
		c4.4-3.5,8.5-7.5,12.5-11.4C234.1,127.6,235.3,125.5,237.9,126z"/>
	<path class="st15" d="M237.9,126c-9.6,9.4-19.5,18.5-31.2,25.5c-18.5,11.1-37.9,18.7-59.9,19.7c-38.2,1.8-72.7-9.2-105.2-28.1
		c-1.2-0.7-2.3-1.9-4.4-1.6c3.8,18.2,10.4,34.4,25.8,46.2c13.8,10.6,28,20.2,45.2,24.5c23.4,6,45.1,1,65.8-10.1
		c13.2-7.1,25.5-15.7,35.9-26.7c0.5-0.5,1-1.6,2-0.6c-11.5,15.6-26,28-42.1,38.5c-26.3,17.2-53.8,18.3-82.1,5.3
		c-10.7-5-20.9-10.9-29.9-18.7c-5.8-6.5-12.6-12.1-17.4-19.4c-1-1.5-2.1-2.9-3.3-4.3c-1-1.6-2.5-3.1-1.4-5.3
		c-2.7-8.8-6.1-17.5-7.2-26.7c-0.3-2.1-0.4-4.3-0.6-6.4c1.2-0.3,2.7,0.3,2.9-1.8c0.3-4.7,3-4,5.8-2.3c7,4.2,14.3,7.9,21.8,11
		c24.2,10.1,49.4,15.4,75.7,15.9c18.8,0.3,37.2-0.7,55.1-7.4c18.2-6.8,33.5-17.6,46.6-31.7c1.2-1.3,1.6-2.9,2.2-4.4
		c0.3-0.5,0.7-0.8,1.2-1C241.1,119.8,238.7,122.8,237.9,126z"/>
	<path class="st22" d="M35.8,171c0.7,1.6,1.4,3.3,2.1,4.9c1.2,1.9,2.3,3.8,3.5,5.8c0.8,1.4,2.2,3.1,0.1,4.7
		c-18.2-17-33-36.2-38.2-61.3c-2.6-12.4-0.2-24.2,7.9-33.9c9.7-11.6,16.2-25,20.7-39c8.5-26,28.4-35,52.7-34.7
		c6.5,0.1,13,0.6,19.2,2.6c-5.1,1.5-10.4,1.1-15.6,1.8c-14,1.9-27.4,5.2-37.7,15.9c-0.4,0.5-0.8,1-2,2.6c8-3.3,15.1-5.1,22.4-5.9
		c11-1.2,21.8-0.3,32.2,3.9c0.7,0.3,1.1,1.2,1.6,1.8c-5.7,0.7-10.9-2.2-16.5-2.5C73.1,37,58,38,46.8,49.9
		c-14.2,15-16,44.8,13.8,54.2c17.5,5.5,33.6,3.1,46.8-10.8c1.2-1.3,2.4-2.8,4.6-2.4c-4.9,10.5-14,16.1-24.2,19.9
		c-14.4,5.4-28.6,4.1-42.4-2.7c-5.5-2.7-10.5-6.3-17.1-6.3c-3.5,0-5.8,1.3-6.9,4.4c-0.9,2.3-2,4.7-2.1,7.1
		c-1,18.5-0.4,36.6,11.5,52.2C32.3,167.6,33.8,169.5,35.8,171z"/>
	<path class="st21" d="M239.3,116.2c-0.2,0.3-0.3,0.6-0.4,0.9c-1.6,3.6-4.5,6.2-7.4,8.7c-22,18.8-47.4,30.4-76.1,33.3
		c-19.8,2-39.5-1-59-4.7c-17.7-3.3-35-8.3-51-16.7c-1.9-1-4.6-1.5-4.4-4.6c5.4,0.7,10,3.4,15,5.2c20.2,7.4,40.8,12.4,62.1,14.9
		c23.6,2.8,46.6,1.7,69-6.7c14.9-5.6,28.3-13.7,40.3-24.3c1.1-1,2.4-1.8,3.5-2.8c2.5-2.3,3.9-5.2,2.5-8.5
		c-2.3-5.2-3.4-10.7-4.8-16.8c-5,4.8-9.8,8.8-16,11.2c-18.7,7.5-36-4.5-40-20.6c-4-16.2-2.1-30.5,11.6-41.4
		c12.8-10.1,27-13.9,42.8-7.5c-2.7,2.4-6,1-9.1,1.4c-13.2,1.6-25.2,5.6-32.1,18.1c-5.6,10.2-6.8,21.2-3.2,32.4
		c5.5,16.8,22.9,18.5,35.7,10.7c3.9-2.4,6.8-5.8,9.8-9.2c0.8-0.9,1.1-2.7,2.9-2c-0.2,6.4,1.4,12.4,4.5,17.9
		C237.6,108.6,238.8,112.3,239.3,116.2z"/>
	<path class="st24" d="M231,87.2c-6.4,9.2-14,16.1-26,17c-14.5,1.1-22.6-8.9-24.9-20.2c-1.8-8.7-0.7-17.2,2.6-25.3
		c6.2-15.3,19.3-20.5,34.3-22.6c3.3-0.5,6.6-0.1,10-0.1c0.9,0.4,1.8,0.7,2.8,1.1C240.5,51.4,241,71.6,231,87.2z"/>
	<path class="st23" d="M204,18.1c-4.2,2-8.7,0.8-13.1,1.8c-5.6,1.2-11.4,2-15.8,5.6c-9.9,8.1-20.7,7.6-32.1,5.1
		c-1-0.2-2.1-0.5-3.3-0.9c0.9-0.6,1.5-1,2.2-1.5c12.8-4.1,25-10.1,38.5-12C188.5,15,196.3,15.1,204,18.1z"/>
	<path class="st0" d="M41.6,186.3c0.4-4-3.4-6.6-3.6-10.4c6.6,7.8,12.7,16,20.2,22.9c0.2,0.1-0.2,0.8-0.2,1.2
		C52,196,46.7,191.3,41.6,186.3z"/>
	<path class="st7" d="M41,133c5.6,5,12.6,7.3,19.3,9.9c18.5,7,37.7,11.2,57.4,13.2c9.2,0.9,18.4,2,27.8,1.9
		c28.4-0.4,53.5-10.1,76.4-26.4c6.1-4.4,11.3-9.7,17-14.5c0.7,2.4-0.5,4.1-2,5.8c-23.3,24.5-51.7,37.9-85.6,39.2
		c-37.4,1.5-73.1-5.1-106.6-22.3c-4-2-7.8-4.3-11.6-6.5c-1.2,0.9-0.8,2-0.8,2.9c0,1.6,1.4,3.7-0.6,4.5c-2,0.8-1.9-2.4-3.6-2.8
		c0,0,0,0.1,0,0.1c-1.6-3.4-1.8-7.1-1.3-10.7c0.3-1.9,0.6-4.1,3.3-4.3c1.5-0.1,3.9,0.2,3.4,1.8c-1.7,5.6,3,5.6,5.8,7.4
		C39.8,132.4,40.4,132.7,41,133z"/>
	<path class="st25" d="M112,90.9c-5.6,5.2-11,10.5-18.2,13.8c-16.8,7.5-41,2.4-52.4-11.9c-7.3-9.2-6.8-19.7-3.6-30.4
		c4.8-16,17.2-22.5,32.2-25.3c11.8-2.2,23.5-1.2,34.8,3c10.8,6.4,11.8,17.3,12.9,28.1C118.7,76.5,116.4,84,112,90.9z"/>
	<path class="st13" d="M165,82.6c0.3-2.9-0.5-6.7,1.7-6.7c3,0,2,3.8,2.3,6.1c1.8,13.6,8.6,23.4,21.5,28.8c1.5,0.6,4.5,0.5,3.9,2.8
		c-0.6,2.2-3.6,2.5-5.6,2.2c-9-0.9-16-4.8-19.9-13.5C165.9,95.8,165.9,88.8,165,82.6z"/>
	<path class="st12" d="M182.4,141.4c-4.5,5.8-10.5,7-16.2,8.3c-11.1,2.5-22.4,1.8-33.6,1.3c-1,0-2.3,0-2.2-1.4
		c0.2-1.3,1.5-1.5,2.8-1.6c4.9-0.6,9.8,0.6,14.8,0.3c11.1-0.6,21.7-2.9,31.9-7C180.3,141.1,180.9,141.3,182.4,141.4z"/>
	<path class="st9" d="M164,122c-2.6-4-2.3-6.8,1.3-8.5c3.7-1.7,6.2-0.2,7.8,3.4c1,2.3,2.1,4.5,1.9,7c-0.1,3.7-2.7,3.2-4.9,2.6
		C167.5,126,165.4,124.3,164,122z"/>
	<path class="st8" d="M129,122c1.1-0.8,0.8-2.1,1.2-3.2c0.8-2.1,1.7-3.9,4.4-4c2.7-0.1,4.5,1.2,5.8,3.2c1.5,2.3,0,4-1.6,5.6
		c-0.4,0.3-0.6,0.8-0.9,1.2c-0.4,1.1-1.1,2.1-2.1,2.6c-1.9,1-3.8,3.3-6.2,1.5C127.1,127.1,127.5,124.5,129,122z"/>
	<path class="st10" d="M30,123c-3.9,4.6-1.7,10-2,15c-2.6-2.5-4-5.6-4.8-9c-0.9-4.3,2.1-8.2,5.8-7.9C30.7,121.1,30.3,122,30,123z"/>
	<path class="st11" d="M164,122c2,1.2,3.9,2.4,6,3.4c2,1,3.9,0.9,5-1.4c1.8,1.8,2.9,4,1,6c-2.1,2.2-4.5,0.6-6.2-0.9
		C167.6,127,164.3,125.6,164,122z"/>
	<path class="st4" d="M129,122c0.2,2.2-1.3,5.3,1.5,6.2c2.9,1,5.1-1.8,7.4-3.4c-0.9,3.1-6.4,7.4-9.1,7c-0.7-0.1-1.6-0.5-2.1-1
		C125,129,126.5,123.6,129,122z"/>
	<path class="st18" d="M184.1,159.5c-14.4,8.9-30,10.7-46.5,7.4C153.2,165,169,164.4,184.1,159.5z"/>
	<path class="st16" d="M232,75c-1.6,6.4-5,11.7-10,15.9c-15.7,8.9-31.3-0.7-32.7-18.6C188,55,206.6,35.3,225.1,39
		c6.1,3.1,6.3,9.4,7.8,14.9c-2.3,0.8-4-1.1-6.1-1.5c-8.8-1.4-22,6.7-24.6,15.2c-0.9,3.1,1.1,6.3,5.1,7.9c6.9,2.8,13.9,2.9,20.9,0.3
		C229.5,75.4,230.6,74.4,232,75z"/>
	<path class="st14" d="M232,75c-7.7,5.1-16.1,4.9-24.3,2c-6.1-2.1-10.2-6.3-4.5-13.7c4-5.3,8.7-9.6,15.2-11.6
		c5.1-1.6,10.2-1.6,14.6,2.1C234.6,61,235,68.1,232,75z"/>
	<path class="st5" d="M225.1,39c-13.5-0.2-23.3,6.1-30.7,17.2c-5.2,7.8-5.5,25.7,3,32.3c5.4,4.2,10.9,5.1,17.2,4.2
		c2.4-0.4,4.8-1.1,7.3-1.6c-6.2,7.2-15.8,10.3-24.1,7.6c-9.4-3-12.8-10.6-14-19.4c-0.7-4.9-0.5-9.9,0.7-14.8
		c4.2-17.1,21.2-28.7,38.7-26.2C224,38.3,224.6,38.7,225.1,39z"/>
	<path class="st17" d="M102.1,42c3.3,1,6.2,2.9,7.7,5.9c9,17.5,8,41.5-16.6,51.2c-10,2.9-19.5,0.6-28.6-3.5
		C54.9,91.2,50,83.2,49.7,72.6c-0.5-15.9,11-29,27.3-32C85.5,39.2,93.8,39.8,102.1,42z"/>
	<path class="st3" d="M102.1,42C94,41.4,86,40.7,77.8,41.9C56.8,45,44.7,66.9,54.4,84.8c4.6,8.5,13,10.9,21.4,13.1
		c5.7,1.5,11.6,0.9,17.4,1.1c-13.4,6.5-34,2.9-44-7.7c-11.3-11.9-9.8-33.8,4.1-44C68.2,36.6,84.9,35.8,102.1,42z"/>
	<path class="st19" d="M209.1,51.5c3-5.9,6.5-9.1,12-9.4c2.3-0.1,4.3,0.7,5.8,2.4c0.9,1,1.2,2.4-0.7,2.4
		C220.4,46.9,215.3,49.1,209.1,51.5z"/>
	<path class="st1" d="M218.8,56.5c0.3-0.7,0.4-0.9,0.5-1c3.3-2,6.6-1.9,9.8,0c0.6,0.4,0.9,1.2,0.2,1.6
		C225.8,59.2,222.4,58,218.8,56.5z"/>
	<path class="st14" d="M84,85.1c-8.3-0.4-16.1-2.3-22.8-7.5c-4.8-3.7-5-6.1-1.2-10.7C70.4,54.2,84.6,50,97,57c13,7.3,12,11.2,3.8,21
		C96.5,83.2,90.7,85.3,84,85.1z"/>
	<path class="st19" d="M72.7,52.3c6.8-8.4,24.4-7.6,29.8-4c1.1,0.7,2,1.7,2.8,2.8c0.8,1.1,0.8,2.5,0,3.7c-1.1,1.6-2.4,0.7-3.5,0
		c-6-3.5-12.4-5.4-19.5-5.1C79.3,50,76.6,51,72.7,52.3z"/>
	<path class="st2" d="M79,59.2c5.4-1.9,9.6-2.1,13.9-0.1c0.9,0.4,2,0.9,1.8,2.1c-0.1,1.2-1.3,1.4-2.2,1.5C88,63.2,83.9,62,79,59.2z"
		/>
</g>
</svg>
